<mxfile host="app.diagrams.net" modified="2024-05-15T20:21:27.864Z" agent="Mozilla/5.0 (Windows NT 10.0; Win64; x64) AppleWebKit/537.36 (KHTML, like Gecko) Chrome/124.0.0.0 Safari/537.36" etag="890YerLGSZnT-_IwNsYw" version="24.4.2" type="device">
  <diagram name="Página-1" id="zXDiG4dHFzsJucFpgHud">
    <mxGraphModel dx="1707" dy="468" grid="1" gridSize="10" guides="1" tooltips="1" connect="1" arrows="1" fold="1" page="1" pageScale="1" pageWidth="827" pageHeight="1169" math="0" shadow="0">
      <root>
        <mxCell id="0" />
        <mxCell id="1" parent="0" />
        <mxCell id="z76EaLrn7gxZeOPeg9KD-2" value="Escritório" style="swimlane;childLayout=stackLayout;horizontal=1;startSize=50;horizontalStack=0;rounded=1;fontSize=14;fontStyle=0;strokeWidth=2;resizeParent=0;resizeLast=1;shadow=0;dashed=0;align=center;arcSize=4;whiteSpace=wrap;html=1;" vertex="1" parent="1">
          <mxGeometry x="-210" y="110" width="160" height="210" as="geometry" />
        </mxCell>
        <mxCell id="z76EaLrn7gxZeOPeg9KD-3" value="codigo&amp;nbsp; PK&lt;div&gt;nome&lt;/div&gt;&lt;div&gt;pais&lt;/div&gt;&lt;div&gt;estado&lt;/div&gt;&lt;div&gt;cidade&lt;/div&gt;&lt;div&gt;endereco&lt;/div&gt;&lt;div&gt;CNPJ&lt;/div&gt;&lt;div&gt;telefone&lt;/div&gt;&lt;div&gt;&lt;br&gt;&lt;/div&gt;" style="align=left;strokeColor=none;fillColor=none;spacingLeft=4;fontSize=12;verticalAlign=top;resizable=0;rotatable=0;part=1;html=1;" vertex="1" parent="z76EaLrn7gxZeOPeg9KD-2">
          <mxGeometry y="50" width="160" height="160" as="geometry" />
        </mxCell>
        <mxCell id="z76EaLrn7gxZeOPeg9KD-4" value="Funcionários" style="swimlane;childLayout=stackLayout;horizontal=1;startSize=50;horizontalStack=0;rounded=1;fontSize=14;fontStyle=0;strokeWidth=2;resizeParent=0;resizeLast=1;shadow=0;dashed=0;align=center;arcSize=4;whiteSpace=wrap;html=1;" vertex="1" parent="1">
          <mxGeometry x="300" y="100" width="160" height="250" as="geometry" />
        </mxCell>
        <mxCell id="z76EaLrn7gxZeOPeg9KD-5" value="codigo&amp;nbsp; PK&lt;div&gt;cpf&lt;br&gt;&lt;div&gt;nome&lt;/div&gt;&lt;div&gt;cargo&lt;/div&gt;&lt;div&gt;endereco&lt;/div&gt;&lt;div&gt;salario&lt;/div&gt;&lt;div&gt;rg&lt;/div&gt;&lt;div&gt;cidade&lt;/div&gt;&lt;div&gt;estado&lt;/div&gt;&lt;div&gt;telefone&lt;/div&gt;&lt;div&gt;codigosetor&amp;nbsp; FK&lt;/div&gt;&lt;div&gt;&lt;br&gt;&lt;/div&gt;&lt;div&gt;&lt;br&gt;&lt;/div&gt;&lt;/div&gt;" style="align=left;strokeColor=none;fillColor=none;spacingLeft=4;fontSize=12;verticalAlign=top;resizable=0;rotatable=0;part=1;html=1;" vertex="1" parent="z76EaLrn7gxZeOPeg9KD-4">
          <mxGeometry y="50" width="160" height="200" as="geometry" />
        </mxCell>
        <mxCell id="z76EaLrn7gxZeOPeg9KD-6" value="Setores" style="swimlane;childLayout=stackLayout;horizontal=1;startSize=50;horizontalStack=0;rounded=1;fontSize=14;fontStyle=0;strokeWidth=2;resizeParent=0;resizeLast=1;shadow=0;dashed=0;align=center;arcSize=4;whiteSpace=wrap;html=1;" vertex="1" parent="1">
          <mxGeometry x="50" y="110" width="160" height="170" as="geometry" />
        </mxCell>
        <mxCell id="z76EaLrn7gxZeOPeg9KD-7" value="codigo&amp;nbsp; PK&lt;div&gt;nome&lt;/div&gt;&lt;div&gt;gerente&lt;/div&gt;&lt;div&gt;telefone&lt;/div&gt;&lt;div&gt;funcao&lt;/div&gt;&lt;div&gt;sala&lt;/div&gt;&lt;div&gt;&lt;span style=&quot;background-color: initial;&quot;&gt;codigoescritorio FK&lt;/span&gt;&lt;/div&gt;&lt;div&gt;&lt;span style=&quot;background-color: initial;&quot;&gt;&amp;nbsp;&lt;/span&gt;&lt;br&gt;&lt;/div&gt;" style="align=left;strokeColor=none;fillColor=none;spacingLeft=4;fontSize=12;verticalAlign=top;resizable=0;rotatable=0;part=1;html=1;" vertex="1" parent="z76EaLrn7gxZeOPeg9KD-6">
          <mxGeometry y="50" width="160" height="120" as="geometry" />
        </mxCell>
        <mxCell id="z76EaLrn7gxZeOPeg9KD-14" value="Clientes" style="swimlane;childLayout=stackLayout;horizontal=1;startSize=50;horizontalStack=0;rounded=1;fontSize=14;fontStyle=0;strokeWidth=2;resizeParent=0;resizeLast=1;shadow=0;dashed=0;align=center;arcSize=4;whiteSpace=wrap;html=1;" vertex="1" parent="1">
          <mxGeometry x="890" y="135" width="160" height="150" as="geometry" />
        </mxCell>
        <mxCell id="z76EaLrn7gxZeOPeg9KD-15" value="CPF&amp;nbsp; PK&lt;div&gt;nome&amp;nbsp;&lt;/div&gt;&lt;div&gt;endereco&lt;/div&gt;&lt;div&gt;telefone&lt;/div&gt;&lt;div&gt;cidade&lt;/div&gt;&lt;div&gt;estado&lt;/div&gt;" style="align=left;strokeColor=none;fillColor=none;spacingLeft=4;fontSize=12;verticalAlign=top;resizable=0;rotatable=0;part=1;html=1;" vertex="1" parent="z76EaLrn7gxZeOPeg9KD-14">
          <mxGeometry y="50" width="160" height="100" as="geometry" />
        </mxCell>
        <mxCell id="z76EaLrn7gxZeOPeg9KD-16" value="Projetos" style="swimlane;childLayout=stackLayout;horizontal=1;startSize=50;horizontalStack=0;rounded=1;fontSize=14;fontStyle=0;strokeWidth=2;resizeParent=0;resizeLast=1;shadow=0;dashed=0;align=center;arcSize=4;whiteSpace=wrap;html=1;" vertex="1" parent="1">
          <mxGeometry x="620" y="125" width="150" height="185" as="geometry" />
        </mxCell>
        <mxCell id="z76EaLrn7gxZeOPeg9KD-17" value="codigo&amp;nbsp; &amp;nbsp;PK&lt;div&gt;nome&lt;/div&gt;&lt;div&gt;datainicio&lt;/div&gt;&lt;div&gt;datafim&lt;/div&gt;&lt;div&gt;tipoproj&lt;/div&gt;&lt;div&gt;valor&lt;/div&gt;&lt;div&gt;codigofuncionario&amp;nbsp; &amp;nbsp;FK&lt;/div&gt;&lt;div&gt;codigocliente&amp;nbsp; &amp;nbsp; &amp;nbsp; &amp;nbsp; &amp;nbsp; &amp;nbsp;FK&lt;/div&gt;" style="align=left;strokeColor=none;fillColor=none;spacingLeft=4;fontSize=12;verticalAlign=top;resizable=0;rotatable=0;part=1;html=1;" vertex="1" parent="z76EaLrn7gxZeOPeg9KD-16">
          <mxGeometry y="50" width="150" height="135" as="geometry" />
        </mxCell>
        <mxCell id="z76EaLrn7gxZeOPeg9KD-24" value="" style="edgeStyle=entityRelationEdgeStyle;fontSize=12;html=1;endArrow=ERmany;rounded=0;exitX=1;exitY=0.5;exitDx=0;exitDy=0;" edge="1" parent="1" source="z76EaLrn7gxZeOPeg9KD-3" target="z76EaLrn7gxZeOPeg9KD-7">
          <mxGeometry width="100" height="100" relative="1" as="geometry">
            <mxPoint x="50" y="280" as="sourcePoint" />
            <mxPoint x="150" y="180" as="targetPoint" />
          </mxGeometry>
        </mxCell>
        <mxCell id="z76EaLrn7gxZeOPeg9KD-25" value="" style="edgeStyle=entityRelationEdgeStyle;fontSize=12;html=1;endArrow=ERmany;rounded=0;" edge="1" parent="1" source="z76EaLrn7gxZeOPeg9KD-7" target="z76EaLrn7gxZeOPeg9KD-5">
          <mxGeometry width="100" height="100" relative="1" as="geometry">
            <mxPoint x="50" y="280" as="sourcePoint" />
            <mxPoint x="150" y="180" as="targetPoint" />
          </mxGeometry>
        </mxCell>
        <mxCell id="z76EaLrn7gxZeOPeg9KD-27" value="" style="edgeStyle=entityRelationEdgeStyle;fontSize=12;html=1;endArrow=ERmany;startArrow=ERmany;rounded=0;entryX=-0.006;entryY=0.364;entryDx=0;entryDy=0;entryPerimeter=0;" edge="1" parent="1" source="z76EaLrn7gxZeOPeg9KD-5" target="z76EaLrn7gxZeOPeg9KD-17">
          <mxGeometry width="100" height="100" relative="1" as="geometry">
            <mxPoint x="670" y="280" as="sourcePoint" />
            <mxPoint x="770" y="180" as="targetPoint" />
          </mxGeometry>
        </mxCell>
        <mxCell id="z76EaLrn7gxZeOPeg9KD-29" value="" style="edgeStyle=entityRelationEdgeStyle;fontSize=12;html=1;endArrow=ERmany;rounded=0;entryX=1.007;entryY=0.348;entryDx=0;entryDy=0;entryPerimeter=0;" edge="1" parent="1" source="z76EaLrn7gxZeOPeg9KD-15" target="z76EaLrn7gxZeOPeg9KD-17">
          <mxGeometry width="100" height="100" relative="1" as="geometry">
            <mxPoint x="840" y="230" as="sourcePoint" />
            <mxPoint x="670" y="180" as="targetPoint" />
          </mxGeometry>
        </mxCell>
      </root>
    </mxGraphModel>
  </diagram>
</mxfile>
